<svg xmlns="http://www.w3.org/2000/svg" xmlns:xlink="http://www.w3.org/1999/xlink" width="1640" zoomAndPan="magnify" viewBox="0 0 1230 693.000001" height="924" preserveAspectRatio="xMidYMid meet" version="1.0"><defs><clipPath id="10f216fa06"><path d="M 405.71875 334.964844 L 421.445312 334.964844 L 421.445312 350.691406 L 405.71875 350.691406 Z M 405.71875 334.964844 " clip-rule="nonzero"/></clipPath></defs><g clip-path="url(#10f216fa06)"><path fill="#000000" d="M 421.445312 342.828125 C 421.445312 343.347656 421.394531 343.855469 421.292969 344.363281 C 421.195312 344.871094 421.042969 345.363281 420.847656 345.839844 C 420.648438 346.316406 420.40625 346.769531 420.121094 347.199219 C 419.832031 347.628906 419.507812 348.023438 419.140625 348.390625 C 418.777344 348.753906 418.378906 349.082031 417.949219 349.367188 C 417.519531 349.65625 417.066406 349.898438 416.589844 350.09375 C 416.113281 350.292969 415.621094 350.441406 415.117188 350.542969 C 414.609375 350.644531 414.097656 350.691406 413.582031 350.691406 C 413.066406 350.691406 412.554688 350.644531 412.046875 350.542969 C 411.542969 350.441406 411.050781 350.292969 410.574219 350.09375 C 410.09375 349.898438 409.640625 349.65625 409.214844 349.367188 C 408.785156 349.082031 408.386719 348.753906 408.019531 348.390625 C 407.65625 348.023438 407.332031 347.628906 407.042969 347.199219 C 406.757812 346.769531 406.515625 346.316406 406.316406 345.839844 C 406.117188 345.363281 405.96875 344.871094 405.871094 344.363281 C 405.769531 343.855469 405.71875 343.347656 405.71875 342.828125 C 405.71875 342.3125 405.769531 341.800781 405.871094 341.296875 C 405.96875 340.789062 406.117188 340.296875 406.316406 339.820312 C 406.515625 339.34375 406.757812 338.890625 407.042969 338.460938 C 407.332031 338.03125 407.65625 337.632812 408.019531 337.269531 C 408.386719 336.902344 408.785156 336.578125 409.214844 336.292969 C 409.640625 336.003906 410.09375 335.761719 410.574219 335.5625 C 411.050781 335.367188 411.542969 335.21875 412.046875 335.117188 C 412.554688 335.015625 413.066406 334.964844 413.582031 334.964844 C 414.097656 334.964844 414.609375 335.015625 415.117188 335.117188 C 415.621094 335.21875 416.113281 335.367188 416.589844 335.5625 C 417.066406 335.761719 417.519531 336.003906 417.949219 336.292969 C 418.378906 336.578125 418.777344 336.902344 419.140625 337.269531 C 419.507812 337.632812 419.832031 338.03125 420.121094 338.460938 C 420.40625 338.890625 420.648438 339.34375 420.847656 339.820312 C 421.042969 340.296875 421.195312 340.789062 421.292969 341.296875 C 421.394531 341.800781 421.445312 342.3125 421.445312 342.828125 Z M 421.445312 342.828125 " fill-opacity="1" fill-rule="nonzero"/></g><path fill="#faf7f0" d="M 1018.828125 351.8125 C 951.628906 347.945312 884.460938 343.558594 817.222656 340.238281 C 690.003906 333.960938 562.257812 330.839844 435.105469 339.847656 C 452.554688 337.949219 470.007812 336.113281 487.476562 334.351562 C 566.554688 326.414062 645.816406 320.109375 725.25 317.199219 C 803.992188 314.308594 882.910156 314.792969 961.519531 320.386719 C 1038.742188 325.871094 1115.664062 336.257812 1191.222656 353.246094 C 1133.863281 357.449219 1076.21875 355.113281 1018.828125 351.8125 Z M 1225.234375 350.222656 C 1149.675781 331.257812 1072.550781 318.929688 994.976562 312.058594 C 916.929688 305.136719 838.453125 303.585938 760.152344 305.683594 C 681.070312 307.796875 602.144531 313.714844 523.441406 321.621094 C 442.121094 329.804688 361.03125 340.074219 279.960938 350.40625 C 198.84375 360.734375 117.738281 370.984375 36.457031 379.964844 C 26.335938 381.085938 16.230469 382.300781 6.109375 383.410156 C 3.832031 383.660156 0.980469 388.4375 4.492188 388.148438 C 85.246094 381.699219 165.714844 371.636719 246.125 361.949219 C 257.992188 360.523438 269.863281 359.085938 281.734375 357.660156 C 252.957031 362.535156 224.363281 368.351562 196.070312 375.332031 C 193.246094 376.03125 190.269531 382.261719 194.746094 381.417969 C 327.230469 356.40625 461.371094 345.609375 596.132812 345.292969 C 729.363281 344.976562 862.394531 353.542969 995.320312 361.507812 C 1071.6875 366.085938 1148.507812 370.355469 1224.714844 361.15625 C 1229.035156 360.636719 1229.320312 351.246094 1225.234375 350.222656 " fill-opacity="1" fill-rule="nonzero"/></svg>